<svg xmlns="http://www.w3.org/2000/svg" viewBox="0 0 269.57 466.06">
    <title>logo</title>
    <circle cx="179.7" cy="233.66" r="15.2" style="fill:none"/>
    <path d="M199,330.5h0c-0.3-9.5-5.1-27-32.4-43.5-39.5-23.9-71.5-12.1-71.5-12.1a15.78,15.78,0,0,0-4.7,1.8,16.41,16.41,0,0,0-4.2,3.8C49,277,34,287.8,24,297.5S0,329.8,0,387.3s4.5,78.5,4.5,78.5h78s-1.8-39.3,19.2-39.3,20.8,39.6,20.8,39.6h82.2C207.5,433.7,199,330.5,199,330.5Z"
          transform="translate(0 -0.04)" style="fill:#04503B"/>
    <path d="M268,58.3c0.9-12,2-44.8,1.4-52s-2.2-7.2-5.2-4.9-7.4,8.8-10,24.2-5.4,24.8-7.9,38-6.5,28.8-9.5,43.5-6.9,26.1-15.2,52.1-17.9,30.4-17.9,30.4c-16.2-.9-20.5-0.2-36.1,8.8s-18,15.5-18,15.5-18-7.8-34.9-.6-20.2,19-20.2,28.4,2.2,13.1,2.2,20.2a56.29,56.29,0,0,1-1.5,12.9s-8.5,26.4,31.6,50.7c39.5,23.9,72.2,5,72.2,5s27.2-13.2,43.3-37.5,19.1-64.8,19.3-68.5-0.5-2.8-.5-2.8c-3.1,4.1-6.2,8.5-11.2,8.5s-6.1-1.5-6.1-1.5,10.4-60.6,13.2-79.1S267.2,70.3,268,58.3ZM179.7,218.5a15.2,15.2,0,1,1-15.2,15.2A15.19,15.19,0,0,1,179.7,218.5Z"
          transform="translate(0 -0.04)" style="fill:#04503B"/>
</svg>